<svg xmlns="http://www.w3.org/2000/svg" viewBox="0 0 4636.79 3341.79"><g id="ed780475-7c31-4a8c-9cdb-cf2481140043" data-name="Layer 2"><g id="a13857c9-d4b3-4e4e-92de-c32260d212e6" data-name="Layer 1"><path d="M1605.3,2782.42l-.61.16c.81,2,1.34,3.27,1.58,3.81a26.62,26.62,0,0,1-1-4Zm1120.29-102.85c-4.4,4.4-8.8,8.7-13.14,12.89,5.94,22.68,11.53,44.77,16.93,65.47a449.67,449.67,0,0,1,1.14-78,8.54,8.54,0,0,1-1.68.16,10.48,10.48,0,0,1-3.25-.53Zm-1129.58-67c-12.28,3.71-42.71,12.69-75.54,20.59,10.68,14.3,20.36,28.62,29,42.45a160.72,160.72,0,0,1,26.82-2.32,138.15,138.15,0,0,1,14.11.71q6,.61,12.26,1.59a230.89,230.89,0,0,1,10.46-47.07c.06-.19.13-.38.2-.58q-8.71-7.56-17.34-15.37Zm1325.26-19.81c2.33,1.86,4.49,3.68,6.46,5.44l-.36-4.39-6.1-1.05Zm-554.34-22.58c-14.15.86-29.77,1.39-46.73,1.39q-8.22,0-16.84-.17c18.68,13.57,31.73,19.36,41.26,19.36,11.13,0,17.46-7.9,22.31-20.58Zm-881.8-75.86c-22.71,2.32-70.07,7.11-112.73,11.24,35.25,16.19,66.44,39.31,93.62,65.41,45.56,7.38,98.27,25.73,122.43,34.71q-28.08-25.91-54.9-54.51c-16.94-18.14-33.06-37.17-48.42-56.85Zm1439.95-84.74a1191,1191,0,0,1-89.84,142.35c20.36,3.67,40.89,12.36,58.37,22.29q11-6.88,22.34-14.31c-5.37-18.08-14-50.37-15.89-76.15-1.79-24.89,9.77-45.9,23.86-56.69q.49-8.84,1.16-17.49Zm-706.25-602.49-.29,0a3.43,3.43,0,0,0-3.17,3.68C2232.2,2037.13,2114.19,2133.07,2113,2134a3.44,3.44,0,0,0,2.13,6.14,3.36,3.36,0,0,0,2.12-.74c1.23-1,122.11-98.91,105-329.17a3.43,3.43,0,0,0-3.4-3.19Zm-231-205.88a3.6,3.6,0,0,0-.56,0,3.44,3.44,0,0,0-2.87,3.92c32.49,212.27-74.1,302.54-75.18,303.43a2.69,2.69,0,0,0-.3.37,1923.69,1923.69,0,0,1-156.66-250.59,3.45,3.45,0,0,0-3-1.85,3.45,3.45,0,0,0-3,5,1935.77,1935.77,0,0,0,138.59,225.79c-32.68-1-182.09-10.26-273.44-98.46a3.41,3.41,0,0,0-2.38-1,3.44,3.44,0,0,0-2.39,5.91c99.37,95.94,265.48,100.3,283.18,100.48a1791.37,1791.37,0,0,0,178.06,211.54c-4,3-51.24,36.11-141.1,36.11-28.56,0-61.42-3.35-98.57-12.08a3.31,3.31,0,0,0-.77-.09,3.44,3.44,0,0,0-.8,6.78c38.31,9,72.06,12.46,101.31,12.46,94.34,0,141.89-36,144.45-38a3.11,3.11,0,0,0,.29-.33c13.42,13.48,26.29,26,38.47,37.38,107.1,100.51,186.33,146.26,187.11,146.71a3.43,3.43,0,1,0,3.41-6c-.77-.45-79.3-45.79-185.82-145.76-56.93-53.43-128.77-129.24-202.88-228.81a3.27,3.27,0,0,0,.68-.38c1.14-.94,28.27-23.48,51.59-73.15,21.41-45.62,43.32-123.72,26-236.64a3.41,3.41,0,0,0-3.36-2.92Zm601.27-77.53a3.27,3.27,0,0,0-.53,0,3.42,3.42,0,0,0-2.84,3.94,1760.15,1760.15,0,0,1,23.2,294.82,3.5,3.5,0,0,0-.86-.22c-1.53-.08-154.11-9.91-262.54-200.88a3.43,3.43,0,0,0-3-1.74,3.52,3.52,0,0,0-1.7.45,3.45,3.45,0,0,0-1.28,4.69C2449.81,1819,2606.14,1829,2607.7,1829.1h.18a3.09,3.09,0,0,0,1-.19c-1.26,124-15.82,227.52-31.64,304.18A1318.31,1318.31,0,0,1,2543.3,2264a3.4,3.4,0,0,0-1.85,3.51,3.2,3.2,0,0,0,.38,1.14c-18.95,59-34.63,91.44-34.89,92a3.44,3.44,0,0,0,6.18,3c.25-.52,16.26-33.59,35.52-93.73,27.92-4.66,226-41.91,319.74-171.41a3.43,3.43,0,1,0-5.57-4c-89,123-274.58,161.45-311.84,168.05,10.84-34.61,22.52-77.5,32.9-127.76,17.17-83.11,32.9-197.56,31.91-335.45,15.42-10.51,159.52-112,185.47-248.16a3.44,3.44,0,0,0-2.73-4,3.68,3.68,0,0,0-.66-.06,3.42,3.42,0,0,0-3.36,2.79c-24,126-151.88,222.13-178.82,241.15a1772.21,1772.21,0,0,0-23.19-264.49,3.44,3.44,0,0,0-3.41-2.88Zm-1071.86-122c-12.52,21.56-23.91,56.86-19.19,111.77,3.89,45.35,19,82,31.14,111.5,12.6,30.57,21.7,52.66,12.35,69.6-6.36,11.53-20.71,18.86-45.15,23.07-45.72,7.87-78,34.92-86.45,72.36-5.19,23.06-.88,48.71,12.46,74.18,15.16,29,41,56.59,76.81,82.1,75,53.48,144.52,84.8,195.26,107.67l4.27,1.92c-88.18-58.23-223.91-126.66-241-231.41-21-129.06,126-63.21,142.89-102.2,14.84-34.37-112.85-211.09-83.42-320.56Zm64-21c-17.91,0-33,23.16-33.78,52.22-.82,29.43,13.28,53.77,31.49,54.37l.69,0c17.91,0,33-23.16,33.77-52.22.82-29.43-13.28-53.77-31.49-54.38Zm940.21-289.92a26.82,26.82,0,0,0-18.18,6.45c-16,14.17-12,47.07,9,73.49,14.5,18.26,33.32,28.65,48.85,28.65a26.82,26.82,0,0,0,18.18-6.45c16-14.17,12-47.07-9-73.49-14.5-18.26-33.31-28.65-48.85-28.65Zm54.64-22.68c101.9,78.56,108.17,336.36,145.21,356.84a18,18,0,0,0,8.83,2.21c15.42,0,35.15-16.81,57.07-33.62s46-33.61,70.16-33.61c21.56,0,43.15,13.38,63.28,52.1,56.66,109-18.82,273.3-58.38,392.71q1.24-2.45,2.53-5c30.08-58.94,71.28-139.66,102.25-244.88,14.77-50.2,19.1-94.89,12.87-132.84-5.48-33.36-19.23-60.14-39.78-77.45-17.07-14.38-37.91-21.58-60.46-21.58-21.52,0-44.59,6.56-67.39,19.72-17.62,10.16-31.77,15.14-43.38,15.14a33.28,33.28,0,0,1-13.25-2.58c-20.1-8.58-27.08-35.67-36.74-73.17-9.32-36.15-20.91-81.14-48.59-125.71-33.51-54-68.08-77.89-94.23-88.33ZM1091.14,2354c-8.34,0-19.22-2.68-30.25-7.93-20.5-9.75-33.77-24.68-29.65-33.35,1.91-4,7.18-6,14.33-6,8.33,0,19.21,2.68,30.25,7.93,20.49,9.76,33.76,24.69,29.64,33.35-1.9,4-7.18,6-14.32,6Zm258.7-1041.46c-11,0-24.92-11.87-33.8-29.81-10.57-21.34-9.94-43.2,1.4-48.81a13,13,0,0,1,5.87-1.32c11,0,24.92,11.86,33.8,29.8,10.56,21.35,9.93,43.2-1.41,48.82a13.14,13.14,0,0,1-5.86,1.32ZM976.74,1130.1c-11.36,0-21.44-3.72-28.28-11.41-16.38-18.42-8-52.59,18.66-76.34,15.53-13.82,33.87-21.06,49.7-21.06,11.36,0,21.44,3.72,28.28,11.42,16.38,18.41,8,52.59-18.66,76.33-15.54,13.82-33.87,21.06-49.7,21.06ZM3280,958.9a8.66,8.66,0,0,1-2.38-.33c-10.46-3-13.22-25.45-6.17-50.18,6.53-22.89,19.18-39.7,29.33-39.7a8.34,8.34,0,0,1,2.38.33c10.46,3,13.22,25.44,6.16,50.17-6.53,22.9-19.18,39.71-29.32,39.71ZM1833.74,819.78c-18,0-43.84-25.29-61.56-62-20.25-41.93-22.29-82.85-4.56-91.42a16.49,16.49,0,0,1,7.2-1.58c18,0,43.84,25.3,61.56,62,20.25,41.92,22.29,82.85,4.56,91.41a16.35,16.35,0,0,1-7.2,1.58Zm930.1-77.49a18.58,18.58,0,0,1-3.06-.25c-21.42-3.54-32.62-43.64-25-89.58,7.23-43.75,28.91-77,49.46-77a19.76,19.76,0,0,1,3.07.25c21.41,3.54,32.62,43.65,25,89.58-7.23,43.76-28.91,77-49.47,77Zm-473.53-397c-12,0-23.77-17.21-26.82-39.77-3.2-23.6,4.38-44.11,16.92-45.8a11.62,11.62,0,0,1,1.67-.12c12,0,23.77,17.22,26.82,39.78,3.2,23.6-4.38,44.11-16.92,45.8a11.62,11.62,0,0,1-1.67.11Zm446.48,3.46c-29.34,0-69.38-18-105.25-50-52.76-47.07-76.51-106.55-53.05-132.84,7.51-8.43,19-12.43,32.77-12.43,29.34,0,69.38,18,105.25,50,52.76,47.07,76.51,106.54,53,132.84-7.51,8.43-18.95,12.42-32.77,12.42ZM847.42,1110.45a686.28,686.28,0,0,1,49.35-96.24c72.32-117.23,218.43-273,503.77-349.53,182.66-49,269.54-168.57,361.52-295.18,103.22-142.09,210-289,464.66-343.94a560.81,560.81,0,0,1,118.55-12.82c173.09,0,315.33,82.45,415.87,167.28C2646.42,94.84,2519.45,56,2394.38,56,2190.54,56,1991.72,159.1,1859,332.49,1592,681.28,1592,681.28,1261.29,777c-209.65,60.66-343.79,184.55-413.87,333.5ZM2346.49,0a579.67,579.67,0,0,0-122.43,13.24c-259.41,56-367.58,204.85-472.19,348.85-90.64,124.76-176.25,242.6-354.59,290.42-127.82,34.26-239,87-330.57,156.83-73.32,55.92-145.53,136.58-191.35,219.05-128.34,231-81.17,534-17.29,673.35,128.76,280.9-36.64,362.84-112.6,510.59a196.35,196.35,0,0,1,36.59-3.4c89.18,0,177.71,58.78,228,140,99.29,160.34,152.2,404.79,160.43,404.79.5,0,.84-.9,1-2.78,4.07-45,1.35-207.41,79.73-252.87-34.17-13.13-61.84-34.51-68.19-53.27-8.35-24.67,44.24-50.63,100.16-50.63a156.33,156.33,0,0,1,46.81,6.81c45,14.22,104.14,49.73,139.13,72.23a1124.81,1124.81,0,0,1-71-109.67c-23.58-4.15-84.6-14.92-121.19-21.77-46.06-8.63-90.48-52.29-91.78-77.85-.69-13.68,19.88-21.82,46.18-21.81,22.86,0,50,6.14,71.34,20.15,27.13,17.83,59,50.67,80.57,74.48-22.81-42.2-42.9-84.68-60.44-125.71-26.4-2.8-113.75-12.15-164.86-18.17-60.72-7.15-122.42-60.06-126.37-93.22-2.35-19.74,30.16-32.88,70-32.88,27.11,0,57.61,6.08,82.84,20.31,47.25,26.66,106.88,84.63,132.94,111.1-22.42-53.65-40.45-104.4-54.55-148.34-15-3.8-65.59-16.68-95.17-24.55-35-9.3-66.71-45.51-66.23-65.28.22-9.34,13-14.4,30-14.4,18.9,0,43,6.28,60.69,19.91,25,19.27,54.52,57.29,67.91,75.4-13.38-42.37-23-77.79-29.15-102.49-18.55-33.41-51.37-101.89-58.91-179.47-6.17-63.46,15.2-91.69,40.42-91.68,27.87,0,60.47,34.5,65.77,94,5,56-20.3,150.49-30.38,185.31,7.73,29.82,19.47,71.49,35.73,120.2-3-34.41-3.5-88.42,14.67-131.94,23.13-55.4,54.47-82.79,80.61-82.79a35.35,35.35,0,0,1,19,5.45c21.7,13.55,22.77,78.28-12.75,130.6-29.16,43-75.82,91.5-91.6,107.52,14.47,41.14,31.94,86.22,52.66,132.71-4.46-29.48-7.71-74.69,5-112.36,17.11-50.59,43.54-76,66.54-76a30.33,30.33,0,0,1,14.42,3.64c19.46,10.35,24.23,65.92-3.18,113-22,37.76-58,81.09-71.4,96.79a1375.4,1375.4,0,0,0,66.78,126.35c-1.44-38.85-2.52-124.43,12.45-178.9,16.66-60.63,80.2-113.89,114.64-113.88,6.61,0,12.14,2,16.07,6.2,24.42,26.36,19.77,110.65-22.08,162-34.52,42.35-93.77,113.46-113.48,137.08,32.64,52.87,69.91,103.82,112.24,149.13,5.68,6.1,11.45,12.07,17.24,18-16.31-30.2-37.34-77.71-38.24-123.32-1.41-70.88,23.65-110.39,54.2-110.39a35.39,35.39,0,0,1,5.2.38c25.12,3.61,52,61.92,40.69,123.62-9,49-30.7,109.23-39.28,132q17.39,16.65,35.2,32.26c11.9-25.39,29.27-42.46,49.24-48.2.36-42.19,17-66.12,39.51-66.12h.31c21.38.2,50.36,45.9,47.84,98.7-.18,3.85-.44,7.79-.77,11.79,9.57,13.07,18.92,29.1,27.77,48.33-16.62-50.17-22.9-88.28-28.47-153.69-4.4-51.71-2.76-93,3.89-125.34-237.52-177.06-47-261-74.33-297.19-29.61-39.19-98.2-65-163.2-107.58q-13.9-9.12-28.15-19.25c-37.25-26.55-64.26-55.51-80.26-86-14.58-27.85-19.23-56.14-13.46-81.82,9.44-42,45.11-72.22,95.43-80.89,20.55-3.54,32.74-9.25,37.28-17.47,6.77-12.26-1.9-33.32-12.88-60-12.43-30.19-27.91-67.75-32-114.81-5.8-67.51,11.87-107.49,27.71-129.14a107,107,0,0,1,24.76-24.62c12.79-14.07,26.22-20.09,40-20.08,80,0,171.53,202.58,214.93,211.62a45.66,45.66,0,0,0,9.24,1c41.76,0,42.91-68.85,87.46-113.07,14.4-14.29,34.87-25.27,57.15-25.27,54.8,0,120.55,66.52,133.75,314,1.47,27.64,10.12,36.72,23,36.72,12.37,0,28.64-8.32,46.26-16.65s36.58-16.65,54.33-16.65c37.58,0,69.71,37.36,72,191.18,1.9,126.66,37.41,231.23,76,231.23,8,0,16.22-4.56,24.25-14.4,46.39-56.89-12-255.69-78.95-347.26-224.28-306.9-98.31-407.6-33.75-410.18,1,0,2.09-.06,3.13-.06,24.66,0,48.53,11.47,70.73,22.94s42.75,22.94,60.77,22.94c10.91,0,20.9-4.2,29.77-15.16,37.41-46.22-40.56-367.61,85.13-367.61a85.14,85.14,0,0,1,13.31,1.1c2.36-.18,5-.29,7.76-.29a118.49,118.49,0,0,1,31.52,4.4c29.21,8,72.67,31.57,113.88,97.91,28.72,46.27,40.59,92.34,50.13,129.36,8.42,32.69,15.07,58.5,29.62,64.71a21.64,21.64,0,0,0,8.61,1.62c9.27,0,21.51-4.45,37.08-13.43,24.84-14.33,50.05-21.48,73.7-21.48,25.29,0,48.79,8.17,68.12,24.45,22.87,19.27,38.13,48.75,44.12,85.23,6.57,40,2.11,86.8-13.27,139.05q-5.86,19.93-12.17,38.71c-29.37,87.76-64.5,156.58-91,208.6-13.61,26.67-25.08,49.16-32.24,67.23-3.73,20.94-4.1,38.76.65,52.43,6.91,19.91,26.51,24.52,51,24.52,10.54,0,22-.85,33.74-1.71s23.78-1.7,35.5-1.7c64.71,0,119.53,26,60.46,221.49a158.43,158.43,0,0,1,50.57-23.49,105.33,105.33,0,0,1,27.37-3.68c2.38,0,4.76.08,7.12.25-33.58-66.09-23.08-130.94,4.81-137.27a43.66,43.66,0,0,1,9.71-1.08c35.52,0,77.72,41.31,101.4,117.61,10.66,34.36,10.72,70.58,7.1,101.31q5.14,6,10.28,12.27c31.81-53,56.16-111.3,74.72-171.15-32.11-24.35-128.67-97.63-185.27-141.35-68.61-53-105.24-146.27-86-178,3.58-5.9,10.85-8.61,20.62-8.61,42.7,0,133.36,51.79,174.24,115.59,37.88,59.1,68.19,154.37,80.82,197.7,14.32-48.81,24.87-98.45,32.6-147-21.72-16.15-80.45-60.82-120.46-100.66-49.91-49.69-64.77-111.94-45.5-125.35a32.79,32.79,0,0,1,19.12-5.58c27.21,0,66.26,25.79,103.69,78.19,29,40.64,41.86,91.23,47.46,124.44,7.42-53.72,11.51-105.53,13.5-152.69-24.65-16.27-97.94-65.69-148.4-110.61-61.46-54.72-84.09-126.79-63.34-144,6.48-5.36,14.79-8.07,24.52-8.07,31,0,76.31,27.53,122.17,84.35,37.62,46.62,56.93,106.72,66.12,145.28,1.31-55.75-.14-103.23-2-137.14-24.82-37.73-89.69-140.29-104.46-203.07-16.23-69,12.11-111.1,46.81-111.1,29.18,0,62.84,29.71,78.33,98.13,19.69,87,6,166.33-3.65,205.29,1.76,28.07,3.48,68.38,3.25,116.79,9.21-21.43,30.16-66.58,52.75-90.45,17.92-19,48.85-28.39,72.74-28.39,16.46,0,29.59,4.49,32.79,13.44,7.87,21.93-16.4,65.28-54.49,79-32.19,11.63-87.49,30.87-103.87,36.56-.51,50.23-3.17,108.42-10,170.25,21.16-32,70.51-102.23,116.74-136.48,29.37-21.75,71.86-31.41,108.85-31.41,39.81,0,73.25,11.17,77.17,30.48,7.55,37.26-46.13,102.1-115.55,116-58.42,11.68-158.63,30.58-188.92,36.27a1341.94,1341.94,0,0,1-25.31,145.66c16.75-28.57,42.5-68.19,68.11-90.67,23.23-20.38,59.63-29.87,89.57-29.87,25.82,0,46.84,7,50.49,20.27,7.9,28.54-28.69,81.42-80.16,95.5-40.89,11.18-109.32,29.11-135.77,36a939.57,939.57,0,0,1-43.74,128.85c33.21-28.43,90.24-73.66,138.43-93.87,21.6-9.05,47.21-12.91,72.52-12.91,60.21,0,118.78,21.82,118.06,47.31-1,36.14-70.92,86.37-145,86.37h-.46c-58.51-.17-155.94-1.36-194.71-1.86a686.65,686.65,0,0,1-36.48,67.92l-.14.23c8.75,11.23,17.46,22.92,26.18,34.86,37.42-14.25,80.31-27.08,113.44-27.08a97.72,97.72,0,0,1,18.63,1.64c70.1,13.72,53.35,66.7,15.1,83.65-7.08,3.14-19.51,4.42-35,4.42-20,0-45.14-2.12-70.71-5.11,18.17,25.12,36.67,50,55.83,72.68,27.86,13.6,45.54,30.28,41.68,44.33,38,35.32,79.21,58.87,126.07,58.87,75.19,0,164.87-60.65,278.81-230.56,23.3-34.74,47.1-58.4,71.08-72.71a461.29,461.29,0,0,0-60-80.92c-99.85-107.85-241.69-223.37-42-517.7C4018,1287.4,3963,943.46,3575.33,835.81c-282.62-78.49-379-125.86-565.22-372a6.3,6.3,0,0,0-.56-4.48c-.75-1.37-76.19-139.07-209.81-262.09C2721.12,124.87,2638,71.58,2552.67,38.86,2485.16,13,2416.17,0,2346.49,0Z" style="fill:#f6d6c8"/><path d="M2115.12,2140.15A3.44,3.44,0,0,1,2113,2134c1.2-.94,119.21-96.88,102.38-323.26a3.43,3.43,0,0,1,3.17-3.68l.29,0a3.43,3.43,0,0,1,3.4,3.19c17.12,230.26-103.76,328.21-105,329.17a3.36,3.36,0,0,1-2.12.74ZM1908.9,1908.93a2.69,2.69,0,0,1,.3-.37c1.08-.89,107.67-91.16,75.18-303.43a3.44,3.44,0,0,1,2.87-3.92,3.6,3.6,0,0,1,.56,0,3.41,3.41,0,0,1,3.36,2.92c17.29,112.92-4.62,191-26,236.64-23.32,49.67-50.45,72.21-51.59,73.15a3.27,3.27,0,0,1-.68.38c74.11,99.57,146,175.38,202.88,228.81,106.52,100,185.05,145.31,185.82,145.76a3.43,3.43,0,1,1-3.41,6c-.78-.45-80-46.2-187.11-146.71-12.18-11.43-25.05-23.9-38.47-37.38a3.11,3.11,0,0,1-.29.33c-2.56,2-50.11,38-144.45,38-29.25,0-63-3.46-101.31-12.46a3.44,3.44,0,0,1,.8-6.78,3.31,3.31,0,0,1,.77.09c37.15,8.73,70,12.08,98.57,12.08,89.86,0,137.09-33.16,141.1-36.11a1791.37,1791.37,0,0,1-178.06-211.54c-17.7-.18-183.81-4.54-283.18-100.48a3.44,3.44,0,0,1,4.77-5c91.35,88.2,240.76,97.5,273.44,98.46a1935.77,1935.77,0,0,1-138.59-225.79,3.44,3.44,0,1,1,6.09-3.19,1923.69,1923.69,0,0,0,156.66,250.59Zm700-86.48a1760.15,1760.15,0,0,0-23.2-294.82,3.42,3.42,0,0,1,2.84-3.94,3.27,3.27,0,0,1,.53,0,3.44,3.44,0,0,1,3.41,2.88A1772.21,1772.21,0,0,1,2615.68,1791c26.94-19,154.81-115.14,178.82-241.15a3.42,3.42,0,0,1,3.36-2.79,3.68,3.68,0,0,1,.66.06,3.44,3.44,0,0,1,2.73,4c-25.95,136.18-170.05,237.65-185.47,248.16,1,137.89-14.74,252.34-31.91,335.45-10.38,50.26-22.06,93.15-32.9,127.76,37.26-6.6,222.85-45.07,311.84-168.05a3.43,3.43,0,0,1,2.79-1.43,3.45,3.45,0,0,1,2.78,5.45c-93.7,129.5-291.82,166.75-319.74,171.41-19.26,60.14-35.27,93.21-35.52,93.73a3.45,3.45,0,0,1-3.09,1.92,3.44,3.44,0,0,1-3.09-4.94c.26-.52,15.94-32.93,34.89-92a3.2,3.2,0,0,1-.38-1.14,3.4,3.4,0,0,1,1.85-3.51,1318.31,1318.31,0,0,0,33.9-130.91c15.82-76.66,30.38-180.17,31.64-304.18a3.09,3.09,0,0,1-1,.19h-.18c-1.56-.08-157.89-10.14-268.16-204.35a3.45,3.45,0,0,1,1.28-4.69,3.52,3.52,0,0,1,1.7-.45,3.43,3.43,0,0,1,3,1.74c108.43,191,261,200.8,262.54,200.88a3.5,3.5,0,0,1,.86.22ZM1698.72,2055.8l-4.27-1.92c-50.74-22.87-120.23-54.19-195.26-107.67-35.8-25.51-61.65-53.14-76.81-82.1-13.34-25.47-17.65-51.12-12.46-74.18,8.42-37.44,40.73-64.49,86.45-72.36,24.44-4.21,38.79-11.54,45.15-23.07,9.35-16.94.25-39-12.35-69.6-12.14-29.47-27.25-66.15-31.14-111.5-4.72-54.91,6.67-90.21,19.19-111.77-29.43,109.47,98.26,286.19,83.42,320.56-16.84,39-163.91-26.86-142.89,102.2,17.06,104.75,152.79,173.18,241,231.41Zm-119.08-568.51-.69,0c-18.21-.6-32.31-24.94-31.49-54.37.81-29.06,15.87-52.22,33.78-52.22h.68c18.21.61,32.31,25,31.49,54.38-.81,29.06-15.86,52.22-33.77,52.22Zm981.46-287.94c-15.53,0-34.35-10.39-48.85-28.65-21-26.42-25-59.32-9-73.49a26.82,26.82,0,0,1,18.18-6.45c15.54,0,34.35,10.39,48.85,28.65,21,26.42,25,59.32,9,73.49a26.82,26.82,0,0,1-18.18,6.45Zm169,227.78a18,18,0,0,1-8.83-2.21c-37-20.48-43.31-278.28-145.21-356.84,26.15,10.44,60.72,34.36,94.23,88.33,27.68,44.57,39.27,89.56,48.59,125.71,9.66,37.5,16.64,64.59,36.74,73.17a33.28,33.28,0,0,0,13.25,2.58c11.61,0,25.76-5,43.38-15.14,22.8-13.16,45.87-19.72,67.39-19.72,22.55,0,43.39,7.2,60.46,21.58,20.55,17.31,34.3,44.09,39.78,77.45,6.23,38,1.9,82.64-12.87,132.84-31,105.22-72.17,185.94-102.25,244.88q-1.29,2.51-2.53,5c39.56-119.41,115-283.73,58.38-392.71-20.13-38.72-41.72-52.1-63.28-52.1-24.15,0-48.25,16.81-70.16,33.61s-41.65,33.62-57.07,33.62Zm-215.57-381.37c-125.69,0-47.72,321.39-85.13,367.61-8.87,11-18.86,15.16-29.77,15.16-18,0-38.56-11.47-60.77-22.94s-46.07-22.94-70.73-22.94c-1,0-2.09,0-3.13.06-64.56,2.58-190.53,103.28,33.75,410.18,66.92,91.57,125.34,290.37,78.95,347.26-8,9.84-16.21,14.4-24.25,14.4-38.57,0-74.08-104.57-76-231.23-2.3-153.82-34.43-191.17-72-191.18-17.75,0-36.71,8.33-54.33,16.65s-33.89,16.65-46.26,16.65c-12.92,0-21.57-9.08-23-36.72-13.2-247.45-79-314-133.75-314-22.28,0-42.75,11-57.15,25.27-44.55,44.22-45.7,113.07-87.46,113.07a45.66,45.66,0,0,1-9.24-1c-43.4-9-135-211.62-214.93-211.62-13.78,0-27.21,6-40,20.08a107,107,0,0,0-24.76,24.62c-15.84,21.65-33.51,61.63-27.71,129.14,4,47.06,19.52,84.62,32,114.81,11,26.64,19.65,47.7,12.88,60-4.54,8.22-16.73,13.93-37.28,17.47-50.32,8.67-86,38.91-95.43,80.89-5.77,25.68-1.12,54,13.46,81.82,16,30.54,43,59.5,80.26,86q14.22,10.14,28.15,19.25c65,42.63,133.59,68.39,163.2,107.58,27.38,36.23-163.19,120.13,74.33,297.19,14.2-68.91,51.21-96.71,101.1-96.7,101.24,0,255.45,114.58,379.29,232.76,26.94,25.71,48,43.92,64.59,56q8.63.18,16.84.17c17,0,32.58-.53,46.73-1.39,16.58-43.3,16-142.35,130.63-172.69a107.89,107.89,0,0,1,27.67-3.77c101.39,0,150.94,160.36,187.22,298.78,4.34-4.19,8.74-8.49,13.14-12.89a12.16,12.16,0,0,1-2.54-1.18,11.48,11.48,0,0,1-3.55-3.39c-2.72-4.13-1.6-8.77,2.5-10.38.35-.14,4.19-1.67,11-4.61,2-13.9,4.78-28.28,8.36-43.14,12.09-50.09,41.48-66.85,74.11-66.85a111.47,111.47,0,0,1,19.77,1.87,1191,1191,0,0,0,89.84-142.35c8.48-110.86,38.38-198.23,100-241.58,59.07-195.51,4.25-221.49-60.46-221.49-11.72,0-23.75.85-35.5,1.7s-23.2,1.71-33.74,1.71c-24.51,0-44.11-4.61-51-24.52-4.75-13.67-4.38-31.49-.65-52.43,7.16-18.07,18.63-40.56,32.24-67.23,26.55-52,61.68-120.84,91-208.6q6.29-18.76,12.17-38.71c15.38-52.25,19.84-99,13.27-139.05-6-36.48-21.25-66-44.12-85.23-19.33-16.28-42.83-24.45-68.12-24.45-23.65,0-48.86,7.15-73.7,21.48-15.57,9-27.81,13.43-37.08,13.43a21.64,21.64,0,0,1-8.61-1.62c-14.55-6.21-21.2-32-29.62-64.71-9.54-37-21.41-83.09-50.13-129.36-41.21-66.34-84.67-89.86-113.88-97.91a118.49,118.49,0,0,0-31.52-4.4c-2.8,0-5.4.11-7.76.29a85.14,85.14,0,0,0-13.31-1.1Z" style="fill:#a7d8d2"/><path d="M1576.32,2673.25a160.72,160.72,0,0,0-26.82,2.32,725.2,725.2,0,0,1,55.19,107l.61-.16c-2.68-13.79-8.4-59.81-2.61-106.87q-6.3-1-12.26-1.59a138.15,138.15,0,0,0-14.11-.71Zm131.49-173.72c-22.54,0-39.15,23.93-39.51,66.12a54.52,54.52,0,0,1,15.17-2.15c22.91,0,48,14.23,71.72,46.52.33-4,.59-7.94.77-11.79,2.52-52.8-26.46-98.5-47.84-98.7Zm-495.46-832.3c-25.22,0-46.59,28.22-40.42,91.68,7.54,77.58,40.36,146.06,58.91,179.47,6.2,24.7,15.77,60.12,29.15,102.49-13.39-18.11-42.88-56.13-67.91-75.4-17.69-13.63-41.79-19.91-60.69-19.91-17,0-29.74,5.06-30,14.4-.48,19.77,31.24,56,66.23,65.28,29.58,7.87,80.19,20.75,95.17,24.55,14.1,43.94,32.13,94.69,54.55,148.34-26.06-26.47-85.69-84.44-132.94-111.1-25.23-14.23-55.73-20.31-82.84-20.31-39.85,0-72.36,13.14-70,32.88,4,33.16,65.65,86.07,126.37,93.22,51.11,6,138.46,15.37,164.86,18.17,17.54,41,37.63,83.51,60.44,125.71-21.52-23.81-53.44-56.65-80.57-74.48-21.3-14-48.48-20.15-71.34-20.15-26.3,0-46.87,8.13-46.18,21.81,1.3,25.56,45.72,69.22,91.78,77.85,36.59,6.85,97.61,17.62,121.19,21.77a1124.81,1124.81,0,0,0,71,109.67c-35-22.5-94.1-58-139.13-72.23a156.33,156.33,0,0,0-46.81-6.81c-55.92,0-108.51,26-100.16,50.63,6.35,18.76,34,40.14,68.19,53.27,13-7.58,28.36-11.9,46.32-11.9,14.14,0,29.94,2.68,47.58,8.58a273.08,273.08,0,0,1,27.29,10.81c42.66-4.13,90-8.92,112.73-11.24,15.36,19.68,31.48,38.71,48.42,56.85q26.73,28.6,54.9,54.51c-24.16-9-76.87-27.33-122.43-34.71a504.74,504.74,0,0,1,54.45,62.19c32.83-7.9,63.26-16.88,75.54-20.59q8.63,7.8,17.34,15.37,2.6-7.4,5.71-14.05-17.79-15.6-35.2-32.26c8.58-22.78,30.31-83,39.28-132,11.29-61.7-15.57-120-40.69-123.62a35.39,35.39,0,0,0-5.2-.38c-30.55,0-55.61,39.51-54.2,110.39.9,45.61,21.93,93.12,38.24,123.32-5.79-5.9-11.56-11.87-17.24-18-42.33-45.31-79.6-96.26-112.24-149.13,19.71-23.62,79-94.73,113.48-137.08,41.85-51.33,46.5-135.62,22.08-162-3.93-4.24-9.46-6.2-16.07-6.2-34.44,0-98,53.25-114.64,113.88-15,54.47-13.89,140.05-12.45,178.9a1375.4,1375.4,0,0,1-66.78-126.35c13.42-15.7,49.43-59,71.4-96.79,27.41-47.09,22.64-102.66,3.18-113a30.33,30.33,0,0,0-14.42-3.64c-23,0-49.43,25.45-66.54,76-12.75,37.67-9.5,82.88-5,112.36-20.72-46.49-38.19-91.57-52.66-132.71,15.78-16,62.44-64.56,91.6-107.52,35.52-52.32,34.45-117,12.75-130.6a35.35,35.35,0,0,0-19-5.45c-26.14,0-57.48,27.39-80.61,82.79-18.17,43.52-17.63,97.53-14.67,131.94-16.26-48.71-28-90.38-35.73-120.2,10.08-34.82,35.37-129.28,30.38-185.31-5.3-59.53-37.9-94-65.77-94Z" style="fill:#a7d8d2"/><path d="M2731.17,2674q-2.79,2.82-5.58,5.6a10.48,10.48,0,0,0,3.25.53,8.54,8.54,0,0,0,1.68-.16q.3-3,.65-6ZM2923.92,2427c-14.09,10.79-25.65,31.8-23.86,56.69,1.86,25.78,10.52,58.07,15.89,76.15q-11.34,7.43-22.34,14.31a219.17,219.17,0,0,1,27.66,18.54l6.1,1.05c-4.84-58.94-6.31-115.17-3.45-166.74Zm455.44-12.38A504.84,504.84,0,0,0,3421,2459c3.86-14.05-13.82-30.73-41.68-44.33Zm16.19-157.28c-33.13,0-76,12.83-113.44,27.08,10.73,14.7,21.47,29.79,32.31,44.87q4.54,6.33,9.11,12.65c25.57,3,50.72,5.11,70.71,5.11,15.53,0,28-1.28,35-4.42,38.25-16.95,55-69.93-15.1-83.65a97.72,97.72,0,0,0-18.63-1.64Zm-270.92-254.68a43.66,43.66,0,0,0-9.71,1.08c-27.89,6.33-38.39,71.18-4.81,137.27,44.63,3.17,84.48,35.76,123,80.57,3.62-30.73,3.56-67-7.1-101.31-23.68-76.3-65.88-117.61-101.4-117.61Zm189.76-767.54c-34.7,0-63,42.08-46.81,111.1,14.77,62.78,79.64,165.34,104.46,203.07,1.84,33.91,3.29,81.39,2,137.14-9.19-38.56-28.5-98.66-66.12-145.28-45.86-56.82-91.18-84.35-122.17-84.35-9.73,0-18,2.71-24.52,8.07-20.75,17.18,1.88,89.25,63.34,144,50.46,44.92,123.75,94.34,148.4,110.61-2,47.16-6.08,99-13.5,152.69-5.6-33.21-18.43-83.8-47.46-124.44-37.43-52.4-76.48-78.19-103.69-78.19a32.79,32.79,0,0,0-19.12,5.58c-19.27,13.41-4.41,75.66,45.5,125.35,40,39.84,98.74,84.51,120.46,100.66-7.73,48.53-18.28,98.17-32.6,147-12.63-43.33-42.94-138.6-80.82-197.7-40.88-63.8-131.54-115.59-174.24-115.59-9.77,0-17,2.71-20.62,8.61-19.24,31.68,17.39,125,86,178,56.6,43.72,153.16,117,185.27,141.35-18.56,59.85-42.91,118.13-74.72,171.15q6.27,7.66,12.52,15.71l.14-.23a686.65,686.65,0,0,0,36.48-67.92c38.77.5,136.2,1.69,194.71,1.86h.46c74.12,0,144-50.23,145-86.37.72-25.49-57.85-47.31-118.06-47.31-25.31,0-50.92,3.86-72.52,12.91C3394,2082.74,3337,2128,3303.75,2156.4a939.57,939.57,0,0,0,43.74-128.85c26.45-6.91,94.88-24.84,135.77-36,51.47-14.08,88.06-67,80.16-95.5-3.65-13.22-24.67-20.27-50.49-20.27-29.94,0-66.34,9.49-89.57,29.87-25.61,22.48-51.36,62.1-68.11,90.67a1341.94,1341.94,0,0,0,25.31-145.66c30.29-5.69,130.5-24.59,188.92-36.27,69.42-13.87,123.1-78.71,115.55-116-3.92-19.31-37.36-30.48-77.17-30.48-37,0-79.48,9.66-108.85,31.41-46.23,34.25-95.58,104.51-116.74,136.48,6.8-61.83,9.46-120,10-170.25,16.38-5.69,71.68-24.93,103.87-36.56,38.09-13.76,62.36-57.11,54.49-79-3.2-9-16.33-13.44-32.79-13.44-23.89,0-54.82,9.44-72.74,28.39-22.59,23.87-43.54,69-52.75,90.45.23-48.41-1.49-88.72-3.25-116.79,9.67-39,23.34-118.29,3.65-205.29-15.49-68.42-49.15-98.13-78.33-98.13Z" style="fill:#a7d8d2"/><path d="M2733,2660c-6.81,2.94-10.65,4.47-11,4.61-4.1,1.61-5.22,6.25-2.5,10.38a11.48,11.48,0,0,0,3.55,3.39,12.16,12.16,0,0,0,2.54,1.18q2.79-2.78,5.58-5.6.79-6.9,1.83-14Z" style="fill:#8cccc4"/><path d="M4481.67,2701.37c-96.32-31.3-98.76,120.17-98.76,120.17s-306.69-907.51-557-534.25c-256,381.77-389.51,211.9-511.5,42-75.29-104.83-146.19-209.66-238.8-184.85-136.62,36.62-167.22,225.19-147.89,453.69-40.16-35.86-158.68-96-186.37,18.71a455.72,455.72,0,0,0-12,141.06c-41.24-158-93.35-397.13-231.82-360.48-202.57,53.6-45.33,321.64-258.79,117.93s-517.12-396.7-484.28-10.72c5.57,65.41,11.85,103.52,28.47,153.69-59.45-129.18-140.84-113.54-169.81-29.87-22.86,66-9,153.36-6.88,157.91-4.14-9.07-89.39-234.23-261.16-291.68-174.5-58.36-168.34,197.83-173.63,256.19-3,32.82-56.12-231.92-161.44-402-81.92-132.29-265.41-205.08-387.81-61-176.27,207.5-9.48,536-9.48,536-47.38,15.85-110.24-39.14-169.9-94.12-86.84-80-166.9-160.05-182.57-21.68C233.84,2941.52,0,2751.32,0,2996.46H4636.79s0-244.68-155.12-295.09Z" style="fill:#42b2a2"/><path d="M4380.58,2995.94s22.35-130.75-58.23-156.45c-50-16-51.3,61.29-51.3,61.29s-153.63-459-289.33-272.47c-199.1,273.63-252.09-140.17-378.14-107-71,18.67-98.47,149-88.42,265.54-20.87-18.29-64.39-47.54-78.77,11a234,234,0,0,0-6.12,72.94c-21.42-80.59-74.64-232.25-148.84-228.15-89,4.92-95,69.21-95,69.21-84.8-136.78-297.82-169.51-280.76,27.34,2.89,33.36,9.3,62.6,17.93,88.19-26.86-21.23-67.09-42.51-88.43-2.51-26.72,50.09,2.49,112,2.49,112s-70.26-152.44-160.91-182.2-67.16,117-69.9,146.73c-1.55,16.74-33.18-154.87-87.89-241.61-42.55-67.47-137.87-104.6-201.44-31.12-91.57,105.83-4.93,273.37-4.93,273.37-43.08-30.41-196-30.54-196,94.48Z" style="fill:#229e8e"/><path d="M1397.61,2798.68c-93.75-27.39-138.8,37-138.8,37s-164.73-393.87-300.43-207.37c-199.1,273.63-252.1-140.17-378.15-107-71,18.67-98.46,149-88.42,265.54-20.87-18.29-69.14-53.54-95.13.83-30,62.8,17.11,170.29,76.73,208.78l1123.48-.06S1525.34,2836,1397.61,2798.68Z" style="fill:#229e8e"/><ellipse cx="3846.23" cy="2598.67" rx="67.37" ry="87.08" transform="matrix(0.92, -0.39, 0.39, 0.92, -712.17, 1722.58)" style="fill:#229e8e"/><path d="M1045.57,2306.73c-7.15,0-12.42,2-14.33,6-4.12,8.67,9.15,23.6,29.65,33.35,11,5.25,21.91,7.93,30.25,7.93,7.14,0,12.42-2,14.32-6,4.12-8.66-9.15-23.59-29.64-33.35-11-5.25-21.92-7.93-30.25-7.93Z" style="fill:#a7d8d2"/><path d="M1774.82,664.8a16.49,16.49,0,0,0-7.2,1.58c-17.73,8.57-15.69,49.49,4.56,91.42,17.72,36.69,43.51,62,61.56,62a16.35,16.35,0,0,0,7.2-1.58c17.73-8.56,15.69-49.49-4.56-91.41-17.72-36.69-43.51-62-61.56-62Z" style="fill:#a7d8d2"/><path d="M2785.21,575.45c-20.55,0-42.23,33.26-49.46,77-7.59,45.94,3.61,86,25,89.58a18.58,18.58,0,0,0,3.06.25c20.56,0,42.24-33.25,49.47-77,7.59-45.93-3.62-86-25-89.58a19.76,19.76,0,0,0-3.07-.25Z" style="fill:#a7d8d2"/><path d="M1323.31,1232.58a13,13,0,0,0-5.87,1.32c-11.34,5.61-12,27.47-1.4,48.81,8.88,17.94,22.84,29.81,33.8,29.81a13.14,13.14,0,0,0,5.86-1.32c11.34-5.62,12-27.47,1.41-48.82-8.88-17.94-22.84-29.81-33.8-29.8Z" style="fill:#a7d8d2"/><path d="M2282.08,259.58a11.62,11.62,0,0,0-1.67.12c-12.54,1.69-20.12,22.2-16.92,45.8,3.05,22.56,14.84,39.77,26.82,39.77a11.62,11.62,0,0,0,1.67-.11c12.54-1.69,20.12-22.2,16.92-45.8-3.05-22.56-14.84-39.78-26.82-39.78Z" style="fill:#a7d8d2"/><path d="M3300.73,868.69c-10.15,0-22.8,16.81-29.33,39.7-7.05,24.73-4.29,47.2,6.17,50.18a8.66,8.66,0,0,0,2.38.33c10.14,0,22.79-16.81,29.32-39.71,7.06-24.73,4.3-47.19-6.16-50.17a8.34,8.34,0,0,0-2.38-.33Z" style="fill:#a7d8d2"/><path d="M3012.12,1590.51l18.19-17.21a117.41,117.41,0,0,0,36.41-95.72,114.9,114.9,0,0,0-50.85-86.37c-11.29-7.53-23.19-12.58-33.48-14.22a10.66,10.66,0,0,1-8.82-11.91c3.63-26.52,9.42-94.69-15-154.85-26.88-66.08-69.21-98.53-100-114.11-33.44-16.93-60.2-18.15-61.32-18.2a3.54,3.54,0,0,0-1.26.2C2740.5,921.91,2662,802,2546.63,841.68c10.25-14.67,25-30.13,43.92-35.85,39.94-12.06,62.64,2,62.64,2s-40.2-63.28-123.58-2.74c-10.72,7.79-18.67,14.69-24.41,20.82-13.64-52.24-50.12-149.87-131.67-145.65-122.17,6.34-130.37,193.37-143.7,203.64-1.21.93-3.93.37-7.92-1.29a439.33,439.33,0,0,0-76.5-61.59c-61.29-38.62-120.67-51.7-171.67-37.83-40.68,11.06-70.22,56.47-87.81,135-14,62.29-16.67,129.29-17,163.68a14.5,14.5,0,0,1-15.46,14.31c-23.71-1.59-67.68,1-95.76,36.29-33.93,42.64-34.65,119.09-2.14,227.23a196.44,196.44,0,0,0-52.42,7.57c-74.18,21-122.67,79.21-108.29,129.92,8.42,29.68,36.52,50.23,73.25,57.94q-4,4.53-8,9.12c-13,13.6-40.18,37.61-70.09,37.54-41.72-.1-59.36-20.12-59.36-20.12s14.69,53,80.08,47.08c-52.49,80-50.27,202.37,21.67,267.94,216,196.89,929.84,212.34,1241.41,41.14,210.57-115.71,159-234.46,103.95-289.81,69.54,17.74,91.8-39.19,91.8-39.19s-19.92,19-61.47,14.85a63.43,63.43,0,0,1-23.18-7.27l25.37-24ZM1933.82,876.62c-38.31,68.09-46.26,167.86-52.37,264.69a45.42,45.42,0,0,0-7.4-2.7c-42.2-11.36-92.72,40.05-112.85,114.83-7,25.86-9.35,51.1-7.78,73.56-22.89-89.68-19.73-153.66,9.52-190.4,26.16-32.88,67.65-35.27,90-33.77a21.21,21.21,0,0,0,22.63-20.94c.69-62.38,9.91-267.79,99.89-292.26,62.07-16.86,124.63,10.79,166.2,37a436.2,436.2,0,0,1,59,44.95C2140,837.54,2002.06,755.34,1933.82,876.62ZM2914,1396.22c23.31-40.83,27.1-105.75,5.83-172-21.43-66.78-62.72-117.6-105.78-136.93a175.33,175.33,0,0,1,41.74,15c29.66,15.08,70.47,46.5,96.5,110.49,23.85,58.66,18.16,125.43,14.61,151.41a17.42,17.42,0,0,0,14.42,19.46c9.36,1.49,20.3,6.17,30.81,13.18a108.18,108.18,0,0,1,47.88,81.34,111.44,111.44,0,0,1-5.84,46.41c5.06-18,5.27-36.16-.29-53.48C3038.24,1422.32,2981.52,1394.36,2914,1396.22Z" style="fill:#26263f"/><path d="M2068,1474.75s3.11,28.38,73.75,117.53c59.87,75.55-114.93,142.43-114.93,142.43l570.62,11.69s-132.64-57.58-122.13-121.55c4.82-29.27,41.36-47.54,77.43-133.35C2568.36,1454.25,2068,1474.75,2068,1474.75Z" style="fill:#1b1b2d"/><path d="M2926.58,2996.11c-.07,137.46-100.25,214.13-606.59,205.08-309.72-5.54-458.55-46.76-527.43-78a89.5,89.5,0,0,1-52.11-91.15c14.41-136.33,86.67-335.27,529.36-325.18C2741.72,2717.67,2926.6,2948.51,2926.58,2996.11Z" style="fill:#1b1b2d"/><path d="M1540.2,2806.92s39.9-112.27,256.07-47.41,444.28,273,604.47,365.72c174.76,101.12,207.06,106.9,207.06,106.9s60-8.13,142.64-28.92c68.4-17.21,157-37.1,169.8-20,17.93,24.06-19.64,109.57-116,133.9-152.19,38.42-207.6,19.55-207.6,19.55-46.1-13-728.5-150.55-839-202.91C1621.18,3069.11,1469.59,2939.47,1540.2,2806.92Z" style="fill:#a96953"/><path d="M2549.79,3270.76c1.26-1.67,22.44-24.82,40.51-44.62,13.69,5.5,17.5,6,17.5,6l81.91-14.87s-78.85,16.24-88,51.46c-10.95,42.27,82.72,72.48,168,56.51-116.68,27.45-169.05,12.5-169.05,12.5-6.8-1.79-27.66-8.17-58.44-14.31C2545.09,3299.14,2548.55,3272.38,2549.79,3270.76Z" style="fill:#90503a"/><path d="M1535.76,2801.71s53-114.7,268.84-48.59,442.76,275.59,602.44,369.21a2032.44,2032.44,0,0,0,191.68,99.39,5.4,5.4,0,0,1,1.87,8.26c-11.21,14.07-17.38,21.66-24.12,46.61-4.4,16.28-5.43,38.34,3.16,54.26a2.88,2.88,0,0,1-3.09,4.19c-133-30.18-725.5-141.92-826.41-190.45C1614,3079.16,1464.44,2933.86,1535.76,2801.71Z" style="fill:#26263f"/><path d="M2598.72,3221.69c-12.35-5.64-30.54-14-53.54-25.2h0s-79.06,7.55-90,41.29c-9.29,28.69-38.86,31.18-133.69,16.95-220.94-33.15-493.35-114.95-557.7-145.89-97.64-47-221.41-145.32-246.36-240.14-3.35,111.55,119.34,221.45,232.68,275.94,100.92,48.53,693.4,160.27,826.41,190.45a2.87,2.87,0,0,0,3.09-4.18c-4.51-8.36-6.81-30.41-2.6-52.38,4.86-25.37,12.36-34.51,23.56-48.58A5.4,5.4,0,0,0,2598.72,3221.69Z" style="fill:#1b1b2d"/><path d="M3126.56,2832.09s-34.74-113.58-248.32-56.35S2434.05,3033,2274.1,3120c-174.49,94.91-206.26,99.56-206.26,99.56s-58.26-10.23-138.22-33.91c-66.16-19.59-152-42.57-165.09-25.92-18.42,23.41,15.06,110.18,108.26,137.86,147.19,43.73,202,26.82,202,26.82,45.51-11.39,717.18-124.9,827.09-173.35C3037.6,3091.24,3190.53,2967,3126.56,2832.09Z" style="fill:#a96953"/><path d="M2123.05,3260.17c-1.17-1.7-21-25.58-37.88-46-13.59,5-17.33,5.37-17.33,5.37l-79.44-17.74s76.4,19,84,54.51c9.1,42.62-83.52,69.52-166.23,50.58,112.93,31.51,164.65,18.41,164.65,18.41,6.7-1.55,27.32-7.19,57.61-12.25C2126.57,3288.7,2124.19,3261.84,2123.05,3260.17Z" style="fill:#90503a"/><path d="M3131.09,2827s-47.48-116.47-260.74-58-442.81,259.86-602.29,347.8a1973.68,1973.68,0,0,1-191,92.61,5.46,5.46,0,0,0-2.13,8.18c10.41,14.46,16.16,22.26,21.8,47.42,3.69,16.42,3.86,38.5-5.13,54.11a2.86,2.86,0,0,0,2.87,4.29c131-25.49,713.91-116.38,814.31-161.33C3044.19,3101.53,3195.78,2961.58,3131.09,2827Z" style="fill:#26263f"/><path d="M2077.11,3209.43c12.27-5.2,30.35-12.88,53.24-23.3l205-109.85s-186.6,106.09-181.54,148.34c4.26,35.66,41.87,50.18,135,39.28,217-25.38,544-109.3,608-138,97.14-43.49,221.72-137.45,249.66-231.33-.93,111.59-124.89,217.1-237.64,267.59-100.39,45-683.27,135.83-814.31,161.32a2.85,2.85,0,0,1-2.86-4.29c4.71-8.19,7.8-30.14,4.51-52.24-3.79-25.52-10.77-34.92-21.18-49.37A5.46,5.46,0,0,1,2077.11,3209.43Z" style="fill:#1b1b2d"/><path d="M3396.49,2879.26c1.09-7.75,1.26-15.75,0-22.22-2.93-15.49-14.18-60-29.81-52.49s-1.45,52-15.37,61.53c-27.85,19.12-100.2-34-72.17-58.64s74.59-3.72,86.61-10.29-3.48-30.69-46.83-39.56c-18.3-3.74-37.14-1-52.8,3.33-24.84,6.93-51.37-1.12-68.94-20.46-34.93-38.44-91.2-99.16-131.22-136.4-62.06-57.74-168.22-118.34-188.11-137.75s-17.83-19.82-35.27-172.22c-12.49-109.21-72.06-426.23-109.22-478.75-30-42.37-223.24-96.11-272.75-108.21a48.65,48.65,0,0,1-25.31-15.27c-49-56.47-36.53-198.08-36.53-198.08l-172.66,1.09s11,120.12-33.12,183.92a61,61,0,0,1-40.22,25.48c-54.55,9.09-208.73,41.52-253.66,97.59-27.14,33.87-111.89,355-127.05,492.23-16.83,152.4-14.84,152.81-34,172.22s-121.69,80-181.59,137.75c-38.64,37.24-93,98-126.67,136.4-17,19.34-42.57,27.39-66.55,20.46-15.13-4.37-33.31-7.07-51-3.33-41.85,8.87-56.82,33-45.22,39.56s56.56-14.32,83.62,10.29-42.79,77.76-69.67,58.64c-13.44-9.56.25-54-14.84-61.53s-26,37-28.77,52.49c-1.18,6.47-1,14.47,0,22.22-41.71,3.86-110.67,11-105.5,31.78,2.54,10.19,25.75,11.63,55.12,9.13-16.78,4.61-28,10.91-25.82,19.72,7.25,29.65,189.54-13.72,189.54-13.72l-.36-.22c37.94-11.2,62.76-48.23,76-74.41a99,99,0,0,1,43.07-43.46c56.79-29.13,173.58-89.66,203.26-109.78,39.65-26.86,167.09-94,196.07-142.55s134.89-396.47,149.59-450.9c15.45,20.72,24.3,162.32,19.6,246.28-14.51,259.08-124.27,414.33-124.27,414.33s130.48,91.49,363.48,91.17c269-.37,433.58-54.82,433.58-54.82s-87.9-176.29-92.44-432c-1.63-91.57,7.66-176.15,11.44-206.34,5.56,20.72,8.74,33.12,8.74,33.12s73.86,310.64,103.88,359.19,162,115.69,203.1,142.55c30.75,20.12,151.73,80.65,210.56,109.78a100.91,100.91,0,0,1,44.62,43.46c13.73,26.18,39.44,63.21,78.75,74.41l-.38.22s188.84,43.37,196.35,13.72c2.23-8.81-9.37-15.11-26.75-19.72,30.42,2.5,54.47,1.06,57.1-9.13C3511.14,2890.3,3439.7,2883.12,3396.49,2879.26Z" style="fill:#a96953"/><path d="M2316.16,1674.7c20.46,0,59-23.52,92-40.76-14-57.64-8.32-114.58-8.32-114.58l-172.65,1.1s2.75,50.47-11.18,105.75C2257.57,1650.68,2298.6,1674.7,2316.16,1674.7Z" style="fill:#90503a"/><path d="M2581.56,1335a48.32,48.32,0,0,0-13.07,3c-2.71-161.93-113.11-292.2-248.92-292.2-136.12,0-246.71,130.88-248.93,293.33a48,48,0,0,0-15.93-4.14c-28-2.46-42.3,20.52-38.88,58.65,4.44,49.4,50.75,94.41,68.86,91.85,4.59-.65,8.81-3.15,12.47-7.22,41,97.35,184,164.13,222.41,164.13,53.58,0,180.34-65.91,221.63-162.23a19.46,19.46,0,0,0,10.55,5.35c17.95,2.52,63.87-42.57,68.29-92C2623.46,1355.39,2609.31,1332.43,2581.56,1335Z" style="fill:#a96953"/><path d="M1447.07,2823.93l.15,0,.25-.24Z" style="fill:#ef6e4b"/><path d="M2031.05,2104.85s-148.36,386.64-176.92,422.35c-24.32,30.39-302.19,224.06-384.3,281,57.13-29.32,172.78-89.29,202.31-109.29,39.64-26.87,167.62-97.32,202-142.19,41.49-54.08,156.87-451.86,156.87-451.86Z" style="fill:#90503a"/><path d="M3188.82,2823.93l-.15,0-.27-.24Z" style="fill:#ef6e4b"/><path d="M2611.33,2104.85s116.33,386.64,146.57,422.35c25.74,30.39,319.91,224.06,406.83,281-60.48-29.32-182.91-89.29-214.17-109.29-42-26.87-176.89-94-207.56-142.55s-106.15-359.2-106.15-359.2S2626.9,2159.28,2611.33,2104.85Z" style="fill:#90503a"/><path d="M2646.46,2178.84c4.05-20.8,12-68.11,6.63-88.6-18.57-70.57-45.37-121.29-41.76-175.35l1.49-163.79s-42.86-17.54-82.2-29.38c-41-12.33-77.87-19-80.71-21.22,0,0-53.27,162.06-143.89,160.51s-134.25-163.21-134.25-163.21l-.07,0c-3.23,1.72-44.09,7.86-95,18.37-35.58,7.35-67.47,22.54-67.47,22.54s1,38.47,13,179.94c4,47.67-34.09,84.59-42.93,174.23-2.85,29,15.9,82.45-2.72,129.12-33.29,83.41-76.58,124.86-95.75,296.34-16.37,146.46,34.72,251.87,34.72,251.87s152.7,131.62,385.69,131.3c269-.37,409.59-99.72,409.59-99.72s41.13-69.22,28.5-297.34C2730.13,2338.66,2636.17,2231.56,2646.46,2178.84Z" style="fill:#fcc646"/><path d="M2186.08,2190.64a2.09,2.09,0,0,1-1.63-3.85c20.79-10.38,61.52-33.91,95.9-32.64,50.71,1.86,85.28,40.46,155.79,41.24,58.34.64-33.19,17.65-76.73,5.49C2307.47,2186.37,2283.24,2166.06,2186.08,2190.64Z" style="fill:#f79e1c"/><path d="M2162.64,1738.73c23.8,38.47,52.57,167.9,149.37,163.44,90.12-4.16,116-144,166-154.72s134.79,3.65,134.79,3.65-42.86-17.54-82.2-29.38c-41-12.33-77.87-19-80.71-21.22,0,0-53.27,162.06-143.89,160.51s-134.25-163.21-134.25-163.21h-.07c-3.23,1.73-44.09,7.87-95,18.38-35.58,7.35-67.47,22.54-67.47,22.54S2138.84,1700.26,2162.64,1738.73Z" style="fill:#f79e1c"/><path d="M2309.29,2874.39c-230.22,6.76-404.23-150.24-429.26-348.58-14.5,142.7,35.5,244.68,35.5,244.68s152.7,131.62,385.69,131.3c269-.37,409.59-99.73,409.59-99.73s32-28.32,30.55-185.19C2710.47,2770.53,2503.22,2868.7,2309.29,2874.39Z" style="fill:#f79e1c"/><path d="M2050.3,2187.9c-65-19.5-68.32-110.56-68.42-114.11-1,6.4-1.91,13.05-2.6,20.06-2.86,29,15.9,82.45-2.72,129.11-7.84,19.63-18.16,36.93-25.19,54.16.05-.11,0,.1,0,0C1986.15,2193.69,2116.58,2207.79,2050.3,2187.9Z" style="fill:#f79e1c"/><path d="M2593.29,2194.53c52.58-19.5,57.05-110.56,57.13-114.11,2.25,8.23,3.6,12.89,4.2,19.9,4.05,47-13.86,76.66,1.21,123.33,6.33,19.62,21.89,57.6,21.83,57.49C2639.89,2209.05,2539.67,2214.41,2593.29,2194.53Z" style="fill:#f79e1c"/><path d="M2311.28,1042.05s-83,19.31-64.05,77.55,35.4,115.79-20.12,165.73-132.74,27.41-131.57,103.53c.39,25.84-4.88,16.21-18-9.38C2044.15,1314.27,2057.57,1001.63,2311.28,1042.05Z" style="fill:#26263f"/><path d="M2315.77,1012.62c-12,2.51-12.31,18-5.38,28.14,15.27,22.35,35.2,35.44,88.55,49.89,107.2,29,57.39,97,75.32,157.51,14,47.3,39.18,74.18,46.11,94.15a228.35,228.35,0,0,1,12.26,66.41,4.57,4.57,0,0,0,8.65,1.93c10.83-21.5,33.89-62,37.49-115C2588.11,1158.49,2484.36,977.38,2315.77,1012.62Z" style="fill:#26263f"/><path d="M2311.28,1042.05s-9.88-61.15-79.75-39c-82.71,26.23-44.9,142.43-8,187.67s3.62,94.61,3.62,94.61,54.75-40.22,34.1-116.13S2234.38,1065.82,2311.28,1042.05Z" style="fill:#1b1b2d"/><path d="M2527.1,1294.64c-41.61-62.32-14.57-69.6-17.32-139.63-1.86-47.25-94.72-59.27-94.72-59.27,84,41.84,43,99.51,59.28,153.15,15.29,50.52,39.18,74.17,46.11,94.14a228.8,228.8,0,0,1,12.26,66.42S2545.68,1322.48,2527.1,1294.64Z" style="fill:#1b1b2d"/></g></g></svg>