<svg width="343" height="643" viewBox="0 0 343 643" fill="none" xmlns="http://www.w3.org/2000/svg">
<path d="M221.46 517.64H0V296.18C0 229.29 54.42 174.87 121.31 174.87C183.8 174.87 235.41 222.36 241.92 283.15C301.92 288.78 342.77 333.74 342.77 396.33C342.76 463.22 288.35 517.64 221.46 517.64ZM27.24 490.4H221.46C273.33 490.4 315.53 448.2 315.53 396.33C315.53 344.57 280.75 309.79 228.99 309.79H215.37V296.18C215.37 244.31 173.17 202.11 121.3 202.11C69.43 202.11 27.23 244.31 27.23 296.18V490.4H27.24Z" fill="#8C8077"/>
<path d="M110.61 151.38C68.88 151.38 34.92 117.42 34.92 75.69C34.92 33.96 68.87 0 110.61 0C152.35 0 186.3 33.95 186.3 75.69C186.3 117.43 152.34 151.38 110.61 151.38ZM110.61 27.24C83.9 27.24 62.16 48.97 62.16 75.69C62.16 102.41 83.89 124.14 110.61 124.14C137.33 124.14 159.06 102.4 159.06 75.69C159.06 48.98 137.32 27.24 110.61 27.24Z" fill="#8C8077"/>
<path d="M66.17 642.56C58.65 642.56 52.55 636.46 52.55 628.94V504.02C52.55 496.5 58.65 490.4 66.17 490.4C73.69 490.4 79.79 496.5 79.79 504.02V628.94C79.79 636.46 73.69 642.56 66.17 642.56Z" fill="#8C8077"/>
<path d="M171.38 642.56C163.86 642.56 157.76 636.46 157.76 628.94V504.02C157.76 496.5 163.86 490.4 171.38 490.4C178.9 490.4 185 496.5 185 504.02V628.94C185 636.46 178.9 642.56 171.38 642.56Z" fill="#8C8077"/>
</svg>
